<svg xmlns="http://www.w3.org/2000/svg" xmlns:xlink="http://www.w3.org/1999/xlink" width="3000" zoomAndPan="magnify" viewBox="0 0 2250 525.000007" height="700" preserveAspectRatio="xMidYMid meet" version="1.0"><defs><g/><clipPath id="id1"><path d="M 337.394531 223 L 509.820312 223 L 509.820312 226.167969 L 337.394531 226.167969 Z M 337.394531 223 " clip-rule="nonzero"/></clipPath><clipPath id="id2"><path d="M 338.160156 226.023438 C 337.796875 220.925781 337.628906 216 337.628906 211.265625 C 337.65625 103.144531 429.210938 88.417969 478.730469 88.417969 C 486.863281 88.417969 493.871094 88.8125 499.144531 89.265625 C 505.445312 89.792969 509.289062 90.394531 509.652344 90.476562 C 507.164062 90.535156 353.777344 94.074219 338.160156 226.023438 " clip-rule="nonzero"/></clipPath><clipPath id="id3"><path d="M 338.160156 226.023438 C 337.796875 220.925781 337.628906 216 337.628906 211.265625 C 337.65625 103.144531 429.210938 88.417969 478.730469 88.417969 C 486.863281 88.417969 493.871094 88.8125 499.144531 89.265625 C 505.445312 89.792969 509.289062 90.394531 509.652344 90.476562 C 507.164062 90.535156 353.777344 94.074219 338.160156 226.023438 " clip-rule="nonzero"/></clipPath><clipPath id="id4"><path d="M 67.003906 18.296875 L 272.671875 18.296875 L 272.671875 216 L 67.003906 216 Z M 67.003906 18.296875 " clip-rule="nonzero"/></clipPath><clipPath id="id5"><path d="M 268.5 215.660156 C 266.351562 44.464844 70.289062 19.121094 67.113281 18.710938 C 67.472656 18.667969 70.382812 18.519531 75.261719 18.519531 C 76.875 18.519531 78.710938 18.535156 80.742188 18.574219 C 126.640625 19.542969 272.460938 33.957031 272.445312 173.585938 C 272.445312 186.507812 271.195312 200.5 268.5 215.660156 " clip-rule="nonzero"/></clipPath><clipPath id="id6"><path d="M 268.5 215.660156 C 266.351562 44.464844 70.289062 19.121094 67.113281 18.710938 C 67.472656 18.667969 70.382812 18.519531 75.261719 18.519531 C 76.875 18.519531 78.710938 18.535156 80.742188 18.574219 C 126.640625 19.542969 272.460938 33.957031 272.445312 173.585938 C 272.445312 186.507812 271.195312 200.5 268.5 215.660156 " clip-rule="nonzero"/></clipPath></defs><path fill="#94637f" d="M 338.160156 226.027344 C 339.09375 224.261719 339.988281 222.472656 340.835938 220.675781 C 357.507812 185.542969 386.824219 157.949219 422.667969 142.960938 C 426.21875 141.480469 429.792969 140.015625 433.367188 138.5625 C 432.539062 139.136719 379.632812 175.96875 352.652344 221.667969 C 405.644531 182.273438 447.621094 214.859375 480.648438 124.175781 C 490.457031 97.226562 509.683594 90.484375 509.683594 90.484375 L 509.652344 90.480469 C 509.289062 90.394531 505.449219 89.792969 499.144531 89.265625 C 460.355469 85.976562 328.210938 85.339844 338.160156 226.027344 " fill-opacity="1" fill-rule="nonzero"/><g clip-path="url(#id1)"><g clip-path="url(#id2)"><g clip-path="url(#id3)"><path fill="#ffffff" d="M 521.203125 238.457031 L 508.433594 240.484375 L 326.074219 225.046875 L 338.851562 223.015625 Z M 521.203125 238.457031 " fill-opacity="1" fill-rule="nonzero"/></g></g></g><path fill="#94637f" d="M 268.503906 215.664062 C 267.550781 213.277344 266.640625 210.867188 265.796875 208.445312 C 249.195312 161.167969 215.371094 121.824219 171.464844 97.757812 C 167.113281 95.378906 162.738281 93.023438 158.355469 90.671875 C 159.335938 91.523438 222.144531 145.894531 250.527344 208.113281 C 200.472656 178.972656 129.753906 186.511719 99.714844 65.820312 C 90.796875 29.964844 67.074219 18.710938 67.074219 18.710938 L 67.113281 18.710938 C 67.597656 18.65625 72.59375 18.414062 80.742188 18.578125 C 130.886719 19.636719 300.308594 36.738281 268.503906 215.664062 " fill-opacity="1" fill-rule="nonzero"/><g clip-path="url(#id4)"><g clip-path="url(#id5)"><g clip-path="url(#id6)"><path fill="#ffffff" d="M 67.199219 14.207031 L 62.980469 215.574219 L 272.367188 219.972656 L 280.835938 227.078125 C 280.804688 227.160156 15.847656 137.449219 67.199219 14.207031 Z M 67.199219 14.207031 " fill-opacity="1" fill-rule="nonzero"/></g></g></g><path fill="#94637f" d="M 579.3125 176.234375 C 569.402344 181.722656 559.09375 186.925781 548.40625 191.820312 C 552.125 223.171875 549.984375 255.769531 541.140625 288.128906 C 504.636719 421.644531 366.285156 501.125 232.667969 465.386719 C 109.972656 432.558594 32.640625 314.597656 47.261719 191.871094 C 36.578125 186.976562 26.265625 181.777344 16.355469 176.289062 C -6.699219 318.46875 80.105469 457.4375 222.222656 496.523438 C 375.132812 538.589844 532.6875 447.765625 573.308594 294.671875 C 583.898438 254.742188 585.476562 214.546875 579.3125 176.234375 " fill-opacity="1" fill-rule="nonzero"/><path fill="#94637f" d="M 328.960938 243.75 C 328.949219 243.308594 328.925781 242.871094 328.878906 242.445312 C 318.613281 242.917969 308.234375 243.160156 297.777344 243.160156 C 287.324219 243.160156 276.960938 242.917969 266.699219 242.453125 C 266.640625 243.050781 266.605469 243.667969 266.605469 244.28125 C 266.578125 244.511719 266.578125 244.753906 266.578125 244.996094 C 266.578125 248.300781 267.097656 251.488281 268.058594 254.480469 C 269.226562 258.175781 271.074219 261.574219 273.457031 264.53125 C 275.582031 267.195312 278.144531 269.496094 281.046875 271.335938 C 284.597656 273.613281 288.636719 275.179688 292.976562 275.847656 C 294.542969 276.097656 296.148438 276.21875 297.789062 276.21875 C 299.597656 276.21875 301.375 276.070312 303.097656 275.757812 C 307.425781 275.03125 311.441406 273.402344 314.960938 271.058594 C 317.824219 269.171875 320.355469 266.828125 322.441406 264.121094 C 324.777344 261.132812 326.558594 257.71875 327.671875 253.992188 C 328.535156 251.160156 328.996094 248.125 328.996094 244.996094 C 328.996094 244.578125 328.988281 244.167969 328.960938 243.75 " fill-opacity="1" fill-rule="nonzero"/><path fill="#ffffff" d="M 494.539062 287.707031 C 486.175781 287.707031 479.402344 280.921875 479.402344 272.554688 C 479.402344 264.183594 486.175781 257.398438 494.539062 257.398438 C 502.902344 257.398438 509.683594 264.183594 509.683594 272.554688 C 509.683594 280.921875 502.902344 287.707031 494.539062 287.707031 Z M 464.085938 256.644531 C 457.710938 256.644531 452.546875 251.472656 452.546875 245.085938 C 452.546875 238.703125 457.710938 233.53125 464.085938 233.53125 C 470.464844 233.53125 475.636719 238.703125 475.636719 245.085938 C 475.636719 251.472656 470.464844 256.644531 464.085938 256.644531 Z M 500.308594 225.589844 C 504.691406 225.589844 508.246094 229.144531 508.246094 233.53125 C 508.246094 237.921875 504.691406 241.472656 500.308594 241.472656 C 495.925781 241.472656 492.371094 237.921875 492.371094 233.53125 C 492.371094 229.144531 495.925781 225.589844 500.308594 225.589844 Z M 498.445312 211.5625 C 449.683594 227.988281 395.308594 238.613281 337.628906 241.984375 C 337.707031 242.976562 337.75 243.976562 337.75 244.996094 C 337.75 245.527344 337.730469 246.058594 337.714844 246.597656 L 491.910156 296.738281 C 504.300781 300.769531 517.609375 293.628906 520.96875 281.03125 C 520.988281 280.953125 521.015625 280.871094 521.035156 280.792969 C 525.136719 265.320312 527.578125 249.789062 528.457031 234.40625 C 529.371094 218.332031 513.6875 206.425781 498.445312 211.5625 Z M 259.722656 257.1875 L 111.34375 305.429688 C 97.480469 309.9375 91.332031 326.144531 98.730469 338.71875 C 111.46875 360.375 127.714844 379.976562 146.925781 396.582031 C 157.0625 405.335938 172.484375 403.613281 180.355469 392.777344 L 268.15625 271.832031 C 264.382812 267.660156 261.480469 262.679688 259.722656 257.1875 Z M 103.765625 297.238281 L 257.882812 247.117188 C 257.84375 246.414062 257.824219 245.710938 257.824219 244.996094 C 257.824219 243.980469 257.878906 242.984375 257.949219 241.992188 C 200.261719 238.621094 145.882812 228 97.121094 211.570312 C 81.828125 206.417969 66.203125 218.417969 67.113281 234.542969 C 68.019531 250.519531 70.578125 266.226562 74.675781 281.421875 C 78.078125 294.050781 91.332031 301.285156 103.765625 297.238281 Z M 464.085938 342.722656 C 459.707031 342.722656 456.148438 339.171875 456.148438 334.78125 C 456.148438 330.394531 459.707031 326.84375 464.085938 326.84375 C 468.472656 326.84375 472.023438 330.394531 472.023438 334.78125 C 472.023438 339.171875 468.472656 342.722656 464.085938 342.722656 Z M 433.0625 381.941406 C 426.683594 381.941406 421.515625 376.769531 421.515625 370.382812 C 421.515625 364.003906 426.683594 358.828125 433.0625 358.828125 C 439.441406 358.828125 444.609375 364.003906 444.609375 370.382812 C 444.609375 376.769531 439.441406 381.941406 433.0625 381.941406 Z M 414.03125 341.996094 C 405.667969 341.996094 398.886719 335.210938 398.886719 326.84375 C 398.886719 318.46875 405.667969 311.683594 414.03125 311.683594 C 422.394531 311.683594 429.171875 318.46875 429.171875 326.84375 C 429.171875 335.210938 422.394531 341.996094 414.03125 341.996094 Z M 484.546875 305.011719 L 336.007812 256.703125 C 334.320312 262.222656 331.472656 267.226562 327.753906 271.445312 L 415.574219 392.425781 C 423.429688 403.253906 438.851562 405.015625 448.96875 396.273438 C 467.863281 379.925781 484.226562 360.433594 497.160156 338.304688 C 504.523438 325.703125 498.421875 309.523438 484.546875 305.011719 Z M 376.15625 417.71875 C 367.792969 417.71875 361.011719 410.9375 361.011719 402.5625 C 361.011719 394.195312 367.792969 387.410156 376.15625 387.410156 C 384.519531 387.410156 391.296875 394.195312 391.296875 402.5625 C 391.296875 410.9375 384.519531 417.71875 376.15625 417.71875 Z M 337.628906 376.039062 C 331.253906 376.039062 326.082031 370.863281 326.082031 364.484375 C 326.082031 358.101562 331.253906 352.925781 337.628906 352.925781 C 344.007812 352.925781 349.175781 358.101562 349.175781 364.484375 C 349.175781 370.863281 344.007812 376.039062 337.628906 376.039062 Z M 337.628906 417.71875 C 333.25 417.71875 329.695312 414.167969 329.695312 409.777344 C 329.695312 405.390625 333.25 401.839844 337.628906 401.839844 C 342.011719 401.839844 345.5625 405.390625 345.5625 409.777344 C 345.5625 414.167969 342.011719 417.71875 337.628906 417.71875 Z M 320.125 278.167969 C 315.136719 281.539062 309.34375 283.800781 303.097656 284.632812 L 303.097656 427.953125 C 303.097656 441.757812 315.246094 452.445312 328.910156 450.589844 C 330.847656 450.324219 332.789062 450.039062 334.722656 449.722656 C 356.472656 446.183594 377.460938 439.550781 397.105469 430.183594 C 409.980469 424.03125 414.140625 407.699219 405.75 396.140625 Z M 190.257812 396.390625 C 181.859375 407.960938 186.027344 424.339844 198.945312 430.445312 C 211.445312 436.359375 224.652344 441.222656 238.492188 444.890625 C 248.039062 447.429688 257.59375 449.332031 267.128906 450.625 C 280.808594 452.472656 292.976562 441.804688 292.976562 427.992188 L 292.976562 284.695312 C 286.714844 283.941406 280.90625 281.746094 275.882812 278.441406 L 190.257812 396.390625 " fill-opacity="1" fill-rule="nonzero"/><g fill="#94637f" fill-opacity="1"><g transform="translate(653.729408, 433.943635)"><g><path d="M 55.390625 0 C 51.703125 0 48.847656 -1.085938 46.828125 -3.265625 C 44.816406 -5.453125 43.8125 -8.222656 43.8125 -11.578125 L 43.8125 -340.9375 C 43.8125 -344.300781 44.816406 -347.070312 46.828125 -349.25 C 48.847656 -351.4375 51.703125 -352.53125 55.390625 -352.53125 L 82.09375 -352.53125 C 85.445312 -352.53125 88.210938 -351.4375 90.390625 -349.25 C 92.578125 -347.070312 93.671875 -344.300781 93.671875 -340.9375 L 93.671875 -43.8125 L 260.875 -43.8125 C 264.5625 -43.8125 267.492188 -42.71875 269.671875 -40.53125 C 271.859375 -38.351562 272.953125 -35.421875 272.953125 -31.734375 L 272.953125 -11.578125 C 272.953125 -8.222656 271.859375 -5.453125 269.671875 -3.265625 C 267.492188 -1.085938 264.5625 0 260.875 0 Z M 55.390625 0 "/></g></g></g><g fill="#94637f" fill-opacity="1"><g transform="translate(937.253518, 433.943635)"><g><path d="M 48.84375 0 C 45.488281 0 42.71875 -1.085938 40.53125 -3.265625 C 38.351562 -5.453125 37.265625 -8.222656 37.265625 -11.578125 L 37.265625 -250.296875 C 37.265625 -253.648438 38.351562 -256.414062 40.53125 -258.59375 C 42.71875 -260.78125 45.488281 -261.875 48.84375 -261.875 L 73.015625 -261.875 C 76.378906 -261.875 79.148438 -260.78125 81.328125 -258.59375 C 83.515625 -256.414062 84.609375 -253.648438 84.609375 -250.296875 L 84.609375 -11.578125 C 84.609375 -8.222656 83.515625 -5.453125 81.328125 -3.265625 C 79.148438 -1.085938 76.378906 0 73.015625 0 Z M 44.828125 -310.734375 C 41.460938 -310.734375 38.6875 -311.820312 36.5 -314 C 34.320312 -316.1875 33.234375 -318.957031 33.234375 -322.3125 L 33.234375 -349.5 C 33.234375 -352.863281 34.320312 -355.71875 36.5 -358.0625 C 38.6875 -360.414062 41.460938 -361.59375 44.828125 -361.59375 L 76.546875 -361.59375 C 79.898438 -361.59375 82.753906 -360.414062 85.109375 -358.0625 C 87.460938 -355.71875 88.640625 -352.863281 88.640625 -349.5 L 88.640625 -322.3125 C 88.640625 -318.957031 87.460938 -316.1875 85.109375 -314 C 82.753906 -311.820312 79.898438 -310.734375 76.546875 -310.734375 Z M 44.828125 -310.734375 "/></g></g></g><g fill="#94637f" fill-opacity="1"><g transform="translate(1059.123575, 433.943635)"><g><path d="M 48.84375 0 C 45.488281 0 42.71875 -1.085938 40.53125 -3.265625 C 38.351562 -5.453125 37.265625 -8.222656 37.265625 -11.578125 L 37.265625 -250.296875 C 37.265625 -253.648438 38.351562 -256.414062 40.53125 -258.59375 C 42.71875 -260.78125 45.488281 -261.875 48.84375 -261.875 L 71.515625 -261.875 C 74.867188 -261.875 77.632812 -260.78125 79.8125 -258.59375 C 82 -256.414062 83.09375 -253.648438 83.09375 -250.296875 L 83.09375 -232.671875 C 90.8125 -243.078125 100.546875 -251.382812 112.296875 -257.59375 C 124.054688 -263.800781 138.160156 -266.90625 154.609375 -266.90625 C 192.546875 -267.25 219.40625 -251.804688 235.1875 -220.578125 C 242.90625 -234.679688 254.148438 -245.925781 268.921875 -254.3125 C 283.703125 -262.707031 300.488281 -266.90625 319.28125 -266.90625 C 336.738281 -266.90625 352.601562 -262.875 366.875 -254.8125 C 381.144531 -246.757812 392.390625 -234.59375 400.609375 -218.3125 C 408.835938 -202.03125 412.953125 -181.632812 412.953125 -157.125 L 412.953125 -11.578125 C 412.953125 -8.222656 411.859375 -5.453125 409.671875 -3.265625 C 407.492188 -1.085938 404.726562 0 401.375 0 L 377.703125 0 C 374.347656 0 371.578125 -1.085938 369.390625 -3.265625 C 367.210938 -5.453125 366.125 -8.222656 366.125 -11.578125 L 366.125 -152.59375 C 366.125 -171.394531 363.4375 -186.164062 358.0625 -196.90625 C 352.695312 -207.65625 345.476562 -215.210938 336.40625 -219.578125 C 327.34375 -223.941406 317.441406 -226.125 306.703125 -226.125 C 297.972656 -226.125 289.070312 -223.941406 280 -219.578125 C 270.9375 -215.210938 263.46875 -207.65625 257.59375 -196.90625 C 251.71875 -186.164062 248.78125 -171.394531 248.78125 -152.59375 L 248.78125 -11.578125 C 248.78125 -8.222656 247.6875 -5.453125 245.5 -3.265625 C 243.320312 -1.085938 240.554688 0 237.203125 0 L 213.53125 0 C 210.175781 0 207.40625 -1.085938 205.21875 -3.265625 C 203.039062 -5.453125 201.953125 -8.222656 201.953125 -11.578125 L 201.953125 -152.59375 C 201.953125 -171.394531 199.097656 -186.164062 193.390625 -196.90625 C 187.679688 -207.65625 180.289062 -215.210938 171.21875 -219.578125 C 162.15625 -223.941406 152.585938 -226.125 142.515625 -226.125 C 133.785156 -226.125 124.890625 -223.941406 115.828125 -219.578125 C 106.765625 -215.210938 99.296875 -207.65625 93.421875 -196.90625 C 87.546875 -186.164062 84.609375 -171.5625 84.609375 -153.09375 L 84.609375 -11.578125 C 84.609375 -8.222656 83.515625 -5.453125 81.328125 -3.265625 C 79.148438 -1.085938 76.378906 0 73.015625 0 Z M 48.84375 0 "/></g></g></g><g fill="#94637f" fill-opacity="1"><g transform="translate(1506.819755, 433.943635)"><g><path d="M 142.015625 5.03125 C 107.097656 5.03125 79.398438 -5.625 58.921875 -26.9375 C 38.441406 -48.257812 27.195312 -77.382812 25.1875 -114.3125 C 24.84375 -118.675781 24.671875 -124.300781 24.671875 -131.1875 C 24.671875 -138.070312 24.84375 -143.695312 25.1875 -148.0625 C 26.519531 -171.894531 32.054688 -192.789062 41.796875 -210.75 C 51.535156 -228.71875 64.878906 -242.566406 81.828125 -252.296875 C 98.785156 -262.035156 118.679688 -266.90625 141.515625 -266.90625 C 167.023438 -266.90625 188.425781 -261.535156 205.71875 -250.796875 C 223.007812 -240.054688 236.1875 -224.78125 245.25 -204.96875 C 254.320312 -185.15625 258.859375 -161.988281 258.859375 -135.46875 L 258.859375 -126.90625 C 258.859375 -123.21875 257.765625 -120.363281 255.578125 -118.34375 C 253.398438 -116.332031 250.628906 -115.328125 247.265625 -115.328125 L 73.015625 -115.328125 C 73.015625 -114.992188 73.015625 -114.320312 73.015625 -113.3125 C 73.015625 -112.300781 73.015625 -111.460938 73.015625 -110.796875 C 73.691406 -97.023438 76.710938 -84.179688 82.078125 -72.265625 C 87.453125 -60.347656 95.257812 -50.695312 105.5 -43.3125 C 115.738281 -35.925781 127.742188 -32.234375 141.515625 -32.234375 C 153.597656 -32.234375 163.664062 -34.078125 171.71875 -37.765625 C 179.78125 -41.460938 186.328125 -45.578125 191.359375 -50.109375 C 196.398438 -54.640625 199.757812 -58.25 201.4375 -60.9375 C 204.457031 -64.96875 206.804688 -67.398438 208.484375 -68.234375 C 210.171875 -69.078125 212.859375 -69.5 216.546875 -69.5 L 241.234375 -69.5 C 244.253906 -69.5 246.851562 -68.570312 249.03125 -66.71875 C 251.21875 -64.875 252.144531 -62.273438 251.8125 -58.921875 C 251.46875 -53.890625 248.773438 -47.765625 243.734375 -40.546875 C 238.703125 -33.328125 231.570312 -26.191406 222.34375 -19.140625 C 213.113281 -12.085938 201.695312 -6.296875 188.09375 -1.765625 C 174.5 2.765625 159.140625 5.03125 142.015625 5.03125 Z M 73.015625 -150.078125 L 211.015625 -150.078125 L 211.015625 -151.59375 C 211.015625 -166.695312 208.242188 -180.125 202.703125 -191.875 C 197.160156 -203.625 189.1875 -212.941406 178.78125 -219.828125 C 168.375 -226.710938 155.953125 -230.15625 141.515625 -230.15625 C 127.078125 -230.15625 114.738281 -226.710938 104.5 -219.828125 C 94.257812 -212.941406 86.453125 -203.625 81.078125 -191.875 C 75.703125 -180.125 73.015625 -166.695312 73.015625 -151.59375 Z M 73.015625 -150.078125 "/></g></g></g><g fill="#94637f" fill-opacity="1"><g transform="translate(1788.833097, 433.943635)"><g><path d="M 55.390625 0 C 51.703125 0 48.847656 -1.085938 46.828125 -3.265625 C 44.816406 -5.453125 43.8125 -8.222656 43.8125 -11.578125 L 43.8125 -340.4375 C 43.8125 -344.132812 44.816406 -347.070312 46.828125 -349.25 C 48.847656 -351.4375 51.703125 -352.53125 55.390625 -352.53125 L 183.3125 -352.53125 C 208.15625 -352.53125 229.722656 -348.5 248.015625 -340.4375 C 266.316406 -332.382812 280.503906 -320.382812 290.578125 -304.4375 C 300.648438 -288.488281 305.6875 -268.59375 305.6875 -244.75 C 305.6875 -220.914062 300.648438 -201.109375 290.578125 -185.328125 C 280.503906 -169.546875 266.316406 -157.625 248.015625 -149.5625 C 229.722656 -141.507812 208.15625 -137.484375 183.3125 -137.484375 L 94.171875 -137.484375 L 94.171875 -11.578125 C 94.171875 -8.222656 93.078125 -5.453125 90.890625 -3.265625 C 88.710938 -1.085938 85.78125 0 82.09375 0 Z M 93.671875 -179.78125 L 180.796875 -179.78125 C 205.640625 -179.78125 224.269531 -185.320312 236.6875 -196.40625 C 249.113281 -207.488281 255.328125 -223.601562 255.328125 -244.75 C 255.328125 -265.570312 249.28125 -281.6875 237.1875 -293.09375 C 225.101562 -304.507812 206.304688 -310.21875 180.796875 -310.21875 L 93.671875 -310.21875 Z M 93.671875 -179.78125 "/></g></g></g><g fill="#94637f" fill-opacity="1"><g transform="translate(2112.141309, 433.943635)"><g><path d="M 48.84375 0 C 45.488281 0 42.71875 -1.085938 40.53125 -3.265625 C 38.351562 -5.453125 37.265625 -8.222656 37.265625 -11.578125 L 37.265625 -250.296875 C 37.265625 -253.648438 38.351562 -256.414062 40.53125 -258.59375 C 42.71875 -260.78125 45.488281 -261.875 48.84375 -261.875 L 73.015625 -261.875 C 76.378906 -261.875 79.148438 -260.78125 81.328125 -258.59375 C 83.515625 -256.414062 84.609375 -253.648438 84.609375 -250.296875 L 84.609375 -11.578125 C 84.609375 -8.222656 83.515625 -5.453125 81.328125 -3.265625 C 79.148438 -1.085938 76.378906 0 73.015625 0 Z M 44.828125 -310.734375 C 41.460938 -310.734375 38.6875 -311.820312 36.5 -314 C 34.320312 -316.1875 33.234375 -318.957031 33.234375 -322.3125 L 33.234375 -349.5 C 33.234375 -352.863281 34.320312 -355.71875 36.5 -358.0625 C 38.6875 -360.414062 41.460938 -361.59375 44.828125 -361.59375 L 76.546875 -361.59375 C 79.898438 -361.59375 82.753906 -360.414062 85.109375 -358.0625 C 87.460938 -355.71875 88.640625 -352.863281 88.640625 -349.5 L 88.640625 -322.3125 C 88.640625 -318.957031 87.460938 -316.1875 85.109375 -314 C 82.753906 -311.820312 79.898438 -310.734375 76.546875 -310.734375 Z M 44.828125 -310.734375 "/></g></g></g></svg>