<svg xmlns="http://www.w3.org/2000/svg" xmlns:xlink="http://www.w3.org/1999/xlink" width="3000" zoomAndPan="magnify" viewBox="0 0 2250 525.000007" height="700" preserveAspectRatio="xMidYMid meet" version="1.0"><defs><g/><clipPath id="id1"><path d="M 337.394531 223 L 509.820312 223 L 509.820312 226.167969 L 337.394531 226.167969 Z M 337.394531 223 " clip-rule="nonzero"/></clipPath><clipPath id="id2"><path d="M 338.160156 226.023438 C 337.796875 220.925781 337.628906 216 337.628906 211.265625 C 337.65625 103.144531 429.210938 88.417969 478.730469 88.417969 C 486.863281 88.417969 493.871094 88.8125 499.144531 89.265625 C 505.445312 89.792969 509.289062 90.394531 509.652344 90.476562 C 507.164062 90.535156 353.777344 94.074219 338.160156 226.023438 " clip-rule="nonzero"/></clipPath><clipPath id="id3"><path d="M 338.160156 226.023438 C 337.796875 220.925781 337.628906 216 337.628906 211.265625 C 337.65625 103.144531 429.210938 88.417969 478.730469 88.417969 C 486.863281 88.417969 493.871094 88.8125 499.144531 89.265625 C 505.445312 89.792969 509.289062 90.394531 509.652344 90.476562 C 507.164062 90.535156 353.777344 94.074219 338.160156 226.023438 " clip-rule="nonzero"/></clipPath><clipPath id="id4"><path d="M 67.003906 18.296875 L 272.671875 18.296875 L 272.671875 216 L 67.003906 216 Z M 67.003906 18.296875 " clip-rule="nonzero"/></clipPath><clipPath id="id5"><path d="M 268.5 215.660156 C 266.351562 44.464844 70.289062 19.121094 67.113281 18.710938 C 67.472656 18.667969 70.382812 18.519531 75.261719 18.519531 C 76.875 18.519531 78.710938 18.535156 80.742188 18.574219 C 126.640625 19.542969 272.460938 33.957031 272.445312 173.585938 C 272.445312 186.507812 271.195312 200.5 268.5 215.660156 " clip-rule="nonzero"/></clipPath><clipPath id="id6"><path d="M 268.5 215.660156 C 266.351562 44.464844 70.289062 19.121094 67.113281 18.710938 C 67.472656 18.667969 70.382812 18.519531 75.261719 18.519531 C 76.875 18.519531 78.710938 18.535156 80.742188 18.574219 C 126.640625 19.542969 272.460938 33.957031 272.445312 173.585938 C 272.445312 186.507812 271.195312 200.5 268.5 215.660156 " clip-rule="nonzero"/></clipPath></defs><g fill="#94637f" fill-opacity="1"><g transform="translate(602.583406, 361.310316)"><g><path d="M 32 0 C 29.863281 0 28.210938 -0.628906 27.046875 -1.890625 C 25.890625 -3.148438 25.3125 -4.75 25.3125 -6.6875 L 25.3125 -196.921875 C 25.3125 -198.859375 25.890625 -200.457031 27.046875 -201.71875 C 28.210938 -202.976562 29.863281 -203.609375 32 -203.609375 L 47.40625 -203.609375 C 49.351562 -203.609375 50.957031 -202.976562 52.21875 -201.71875 C 53.476562 -200.457031 54.109375 -198.859375 54.109375 -196.921875 L 54.109375 -25.3125 L 150.671875 -25.3125 C 152.804688 -25.3125 154.503906 -24.679688 155.765625 -23.421875 C 157.023438 -22.160156 157.65625 -20.460938 157.65625 -18.328125 L 157.65625 -6.6875 C 157.65625 -4.75 157.023438 -3.148438 155.765625 -1.890625 C 154.503906 -0.628906 152.804688 0 150.671875 0 Z M 32 0 "/></g></g></g><g fill="#94637f" fill-opacity="1"><g transform="translate(766.339139, 361.310316)"><g><path d="M 28.21875 0 C 26.28125 0 24.679688 -0.628906 23.421875 -1.890625 C 22.160156 -3.148438 21.53125 -4.75 21.53125 -6.6875 L 21.53125 -144.5625 C 21.53125 -146.5 22.160156 -148.097656 23.421875 -149.359375 C 24.679688 -150.617188 26.28125 -151.25 28.21875 -151.25 L 42.171875 -151.25 C 44.109375 -151.25 45.707031 -150.617188 46.96875 -149.359375 C 48.226562 -148.097656 48.859375 -146.5 48.859375 -144.5625 L 48.859375 -6.6875 C 48.859375 -4.75 48.226562 -3.148438 46.96875 -1.890625 C 45.707031 -0.628906 44.109375 0 42.171875 0 Z M 25.890625 -179.46875 C 23.953125 -179.46875 22.351562 -180.097656 21.09375 -181.359375 C 19.832031 -182.617188 19.203125 -184.21875 19.203125 -186.15625 L 19.203125 -201.875 C 19.203125 -203.8125 19.832031 -205.457031 21.09375 -206.8125 C 22.351562 -208.164062 23.953125 -208.84375 25.890625 -208.84375 L 44.21875 -208.84375 C 46.15625 -208.84375 47.800781 -208.164062 49.15625 -206.8125 C 50.507812 -205.457031 51.1875 -203.8125 51.1875 -201.875 L 51.1875 -186.15625 C 51.1875 -184.21875 50.507812 -182.617188 49.15625 -181.359375 C 47.800781 -180.097656 46.15625 -179.46875 44.21875 -179.46875 Z M 25.890625 -179.46875 "/></g></g></g><g fill="#94637f" fill-opacity="1"><g transform="translate(836.727935, 361.310316)"><g><path d="M 28.21875 0 C 26.28125 0 24.679688 -0.628906 23.421875 -1.890625 C 22.160156 -3.148438 21.53125 -4.75 21.53125 -6.6875 L 21.53125 -144.5625 C 21.53125 -146.5 22.160156 -148.097656 23.421875 -149.359375 C 24.679688 -150.617188 26.28125 -151.25 28.21875 -151.25 L 41.296875 -151.25 C 43.242188 -151.25 44.847656 -150.617188 46.109375 -149.359375 C 47.367188 -148.097656 48 -146.5 48 -144.5625 L 48 -134.390625 C 52.457031 -140.398438 58.078125 -145.195312 64.859375 -148.78125 C 71.648438 -152.363281 79.796875 -154.15625 89.296875 -154.15625 C 111.210938 -154.351562 126.726562 -145.4375 135.84375 -127.40625 C 140.300781 -135.550781 146.796875 -142.046875 155.328125 -146.890625 C 163.859375 -151.734375 173.554688 -154.15625 184.421875 -154.15625 C 194.503906 -154.15625 203.664062 -151.828125 211.90625 -147.171875 C 220.144531 -142.523438 226.640625 -135.5 231.390625 -126.09375 C 236.140625 -116.6875 238.515625 -104.90625 238.515625 -90.75 L 238.515625 -6.6875 C 238.515625 -4.75 237.882812 -3.148438 236.625 -1.890625 C 235.363281 -0.628906 233.765625 0 231.828125 0 L 218.15625 0 C 216.21875 0 214.617188 -0.628906 213.359375 -1.890625 C 212.097656 -3.148438 211.46875 -4.75 211.46875 -6.6875 L 211.46875 -88.140625 C 211.46875 -98.992188 209.914062 -107.523438 206.8125 -113.734375 C 203.707031 -119.941406 199.535156 -124.304688 194.296875 -126.828125 C 189.066406 -129.347656 183.347656 -130.609375 177.140625 -130.609375 C 172.097656 -130.609375 166.957031 -129.347656 161.71875 -126.828125 C 156.488281 -124.304688 152.175781 -119.941406 148.78125 -113.734375 C 145.382812 -107.523438 143.6875 -98.992188 143.6875 -88.140625 L 143.6875 -6.6875 C 143.6875 -4.75 143.054688 -3.148438 141.796875 -1.890625 C 140.535156 -0.628906 138.9375 0 137 0 L 123.328125 0 C 121.390625 0 119.789062 -0.628906 118.53125 -1.890625 C 117.269531 -3.148438 116.640625 -4.75 116.640625 -6.6875 L 116.640625 -88.140625 C 116.640625 -98.992188 114.988281 -107.523438 111.6875 -113.734375 C 108.394531 -119.941406 104.128906 -124.304688 98.890625 -126.828125 C 93.660156 -129.347656 88.132812 -130.609375 82.3125 -130.609375 C 77.269531 -130.609375 72.128906 -129.347656 66.890625 -126.828125 C 61.660156 -124.304688 57.347656 -119.941406 53.953125 -113.734375 C 50.554688 -107.523438 48.859375 -99.085938 48.859375 -88.421875 L 48.859375 -6.6875 C 48.859375 -4.75 48.226562 -3.148438 46.96875 -1.890625 C 45.707031 -0.628906 44.109375 0 42.171875 0 Z M 28.21875 0 "/></g></g></g><g fill="#94637f" fill-opacity="1"><g transform="translate(1095.304944, 361.310316)"><g><path d="M 82.03125 2.90625 C 61.863281 2.90625 45.863281 -3.25 34.03125 -15.5625 C 22.195312 -27.875 15.703125 -44.695312 14.546875 -66.03125 C 14.347656 -68.550781 14.25 -71.796875 14.25 -75.765625 C 14.25 -79.742188 14.347656 -82.992188 14.546875 -85.515625 C 15.316406 -99.285156 18.515625 -111.359375 24.140625 -121.734375 C 29.765625 -132.109375 37.472656 -140.101562 47.265625 -145.71875 C 57.054688 -151.34375 68.546875 -154.15625 81.734375 -154.15625 C 96.472656 -154.15625 108.832031 -151.050781 118.8125 -144.84375 C 128.800781 -138.644531 136.414062 -129.820312 141.65625 -118.375 C 146.894531 -106.9375 149.515625 -93.5625 149.515625 -78.25 L 149.515625 -73.296875 C 149.515625 -71.160156 148.882812 -69.507812 147.625 -68.34375 C 146.363281 -67.1875 144.757812 -66.609375 142.8125 -66.609375 L 42.171875 -66.609375 C 42.171875 -66.410156 42.171875 -66.019531 42.171875 -65.4375 C 42.171875 -64.863281 42.171875 -64.382812 42.171875 -64 C 42.566406 -56.039062 44.3125 -48.617188 47.40625 -41.734375 C 50.507812 -34.859375 55.019531 -29.285156 60.9375 -25.015625 C 66.851562 -20.742188 73.785156 -18.609375 81.734375 -18.609375 C 88.710938 -18.609375 94.53125 -19.675781 99.1875 -21.8125 C 103.84375 -23.945312 107.625 -26.320312 110.53125 -28.9375 C 113.4375 -31.5625 115.375 -33.648438 116.34375 -35.203125 C 118.09375 -37.523438 119.453125 -38.925781 120.421875 -39.40625 C 121.390625 -39.894531 122.941406 -40.140625 125.078125 -40.140625 L 139.328125 -40.140625 C 141.078125 -40.140625 142.582031 -39.601562 143.84375 -38.53125 C 145.101562 -37.46875 145.632812 -35.96875 145.4375 -34.03125 C 145.238281 -31.125 143.6875 -27.582031 140.78125 -23.40625 C 137.875 -19.238281 133.753906 -15.117188 128.421875 -11.046875 C 123.085938 -6.972656 116.492188 -3.628906 108.640625 -1.015625 C 100.785156 1.597656 91.914062 2.90625 82.03125 2.90625 Z M 42.171875 -86.6875 L 121.875 -86.6875 L 121.875 -87.546875 C 121.875 -96.273438 120.273438 -104.03125 117.078125 -110.8125 C 113.878906 -117.601562 109.273438 -122.988281 103.265625 -126.96875 C 97.253906 -130.945312 90.078125 -132.9375 81.734375 -132.9375 C 73.398438 -132.9375 66.273438 -130.945312 60.359375 -126.96875 C 54.441406 -122.988281 49.929688 -117.601562 46.828125 -110.8125 C 43.722656 -104.03125 42.171875 -96.273438 42.171875 -87.546875 Z M 42.171875 -86.6875 "/></g></g></g><g fill="#94637f" fill-opacity="1"><g transform="translate(1258.188099, 361.310316)"><g><path d="M 32 0 C 29.863281 0 28.210938 -0.628906 27.046875 -1.890625 C 25.890625 -3.148438 25.3125 -4.75 25.3125 -6.6875 L 25.3125 -196.625 C 25.3125 -198.757812 25.890625 -200.457031 27.046875 -201.71875 C 28.210938 -202.976562 29.863281 -203.609375 32 -203.609375 L 105.875 -203.609375 C 120.226562 -203.609375 132.6875 -201.28125 143.25 -196.625 C 153.820312 -191.976562 162.015625 -185.046875 167.828125 -175.828125 C 173.648438 -166.617188 176.5625 -155.128906 176.5625 -141.359375 C 176.5625 -127.597656 173.648438 -116.160156 167.828125 -107.046875 C 162.015625 -97.929688 153.820312 -91.046875 143.25 -86.390625 C 132.6875 -81.734375 120.226562 -79.40625 105.875 -79.40625 L 54.390625 -79.40625 L 54.390625 -6.6875 C 54.390625 -4.75 53.757812 -3.148438 52.5 -1.890625 C 51.238281 -0.628906 49.539062 0 47.40625 0 Z M 54.109375 -103.84375 L 104.421875 -103.84375 C 118.773438 -103.84375 129.535156 -107.039062 136.703125 -113.4375 C 143.878906 -119.84375 147.46875 -129.148438 147.46875 -141.359375 C 147.46875 -153.390625 143.976562 -162.695312 137 -169.28125 C 130.019531 -175.875 119.160156 -179.171875 104.421875 -179.171875 L 54.109375 -179.171875 Z M 54.109375 -103.84375 "/></g></g></g><g fill="#94637f" fill-opacity="1"><g transform="translate(1444.922037, 361.310316)"><g><path d="M 28.21875 0 C 26.28125 0 24.679688 -0.628906 23.421875 -1.890625 C 22.160156 -3.148438 21.53125 -4.75 21.53125 -6.6875 L 21.53125 -144.5625 C 21.53125 -146.5 22.160156 -148.097656 23.421875 -149.359375 C 24.679688 -150.617188 26.28125 -151.25 28.21875 -151.25 L 42.171875 -151.25 C 44.109375 -151.25 45.707031 -150.617188 46.96875 -149.359375 C 48.226562 -148.097656 48.859375 -146.5 48.859375 -144.5625 L 48.859375 -6.6875 C 48.859375 -4.75 48.226562 -3.148438 46.96875 -1.890625 C 45.707031 -0.628906 44.109375 0 42.171875 0 Z M 25.890625 -179.46875 C 23.953125 -179.46875 22.351562 -180.097656 21.09375 -181.359375 C 19.832031 -182.617188 19.203125 -184.21875 19.203125 -186.15625 L 19.203125 -201.875 C 19.203125 -203.8125 19.832031 -205.457031 21.09375 -206.8125 C 22.351562 -208.164062 23.953125 -208.84375 25.890625 -208.84375 L 44.21875 -208.84375 C 46.15625 -208.84375 47.800781 -208.164062 49.15625 -206.8125 C 50.507812 -205.457031 51.1875 -203.8125 51.1875 -201.875 L 51.1875 -186.15625 C 51.1875 -184.21875 50.507812 -182.617188 49.15625 -181.359375 C 47.800781 -180.097656 46.15625 -179.46875 44.21875 -179.46875 Z M 25.890625 -179.46875 "/></g></g></g><g fill="#94637f" fill-opacity="1"><g transform="translate(1515.310833, 361.310316)"><g/></g></g><g fill="#94637f" fill-opacity="1"><g transform="translate(1586.564866, 361.310316)"><g><path d="M 18.328125 0 C 16.191406 0 14.441406 -0.722656 13.078125 -2.171875 C 11.722656 -3.628906 11.046875 -5.328125 11.046875 -7.265625 L 11.046875 -31.703125 C 11.046875 -34.421875 11.628906 -36.648438 12.796875 -38.390625 C 13.960938 -40.140625 14.835938 -41.398438 15.421875 -42.171875 L 113.15625 -164.640625 L 20.9375 -164.640625 C 19 -164.640625 17.351562 -165.316406 16 -166.671875 C 14.644531 -168.023438 13.96875 -169.769531 13.96875 -171.90625 L 13.96875 -196.34375 C 13.96875 -198.476562 14.644531 -200.222656 16 -201.578125 C 17.351562 -202.929688 19 -203.609375 20.9375 -203.609375 L 164.046875 -203.609375 C 166.179688 -203.609375 167.925781 -202.929688 169.28125 -201.578125 C 170.644531 -200.222656 171.328125 -198.476562 171.328125 -196.34375 L 171.328125 -172.203125 C 171.328125 -170.066406 170.9375 -168.171875 170.15625 -166.515625 C 169.382812 -164.867188 168.515625 -163.46875 167.546875 -162.3125 L 72.421875 -39.265625 L 167.25 -39.265625 C 169.382812 -39.265625 171.128906 -38.585938 172.484375 -37.234375 C 173.847656 -35.878906 174.53125 -34.132812 174.53125 -32 L 174.53125 -7.265625 C 174.53125 -5.140625 173.847656 -3.394531 172.484375 -2.03125 C 171.128906 -0.675781 169.382812 0 167.25 0 Z M 18.328125 0 "/></g></g></g><g fill="#94637f" fill-opacity="1"><g transform="translate(1772.135313, 361.310316)"><g><path d="M 85.8125 2.90625 C 63.507812 2.90625 45.8125 -3.296875 32.71875 -15.703125 C 19.632812 -28.117188 12.703125 -46.15625 11.921875 -69.8125 C 11.921875 -71.363281 11.921875 -73.445312 11.921875 -76.0625 C 11.921875 -78.675781 11.921875 -80.664062 11.921875 -82.03125 C 12.703125 -97.15625 16.097656 -110.097656 22.109375 -120.859375 C 28.117188 -131.617188 36.550781 -139.859375 47.40625 -145.578125 C 58.269531 -151.296875 70.972656 -154.15625 85.515625 -154.15625 C 101.992188 -154.15625 115.660156 -150.8125 126.515625 -144.125 C 137.378906 -137.4375 145.578125 -128.320312 151.109375 -116.78125 C 156.640625 -105.25 159.40625 -92.015625 159.40625 -77.078125 L 159.40625 -70.390625 C 159.40625 -68.453125 158.722656 -66.753906 157.359375 -65.296875 C 156.003906 -63.847656 154.257812 -63.125 152.125 -63.125 L 57.296875 -63.125 C 57.296875 -63.125 57.296875 -62.878906 57.296875 -62.390625 C 57.296875 -61.910156 57.296875 -61.472656 57.296875 -61.078125 C 57.492188 -54.878906 58.660156 -49.207031 60.796875 -44.0625 C 62.929688 -38.925781 66.082031 -34.804688 70.25 -31.703125 C 74.414062 -28.597656 79.503906 -27.046875 85.515625 -27.046875 C 90.171875 -27.046875 94.050781 -27.773438 97.15625 -29.234375 C 100.257812 -30.691406 102.828125 -32.335938 104.859375 -34.171875 C 106.898438 -36.015625 108.40625 -37.617188 109.375 -38.984375 C 111.113281 -41.109375 112.515625 -42.410156 113.578125 -42.890625 C 114.648438 -43.378906 116.253906 -43.625 118.390625 -43.625 L 149.21875 -43.625 C 150.96875 -43.625 152.472656 -43.039062 153.734375 -41.875 C 154.992188 -40.71875 155.523438 -39.265625 155.328125 -37.515625 C 155.128906 -34.222656 153.523438 -30.296875 150.515625 -25.734375 C 147.515625 -21.179688 143.101562 -16.722656 137.28125 -12.359375 C 131.46875 -7.992188 124.242188 -4.359375 115.609375 -1.453125 C 106.984375 1.453125 97.050781 2.90625 85.8125 2.90625 Z M 57.296875 -89.875 L 114.015625 -89.875 L 114.015625 -90.75 C 114.015625 -97.539062 112.898438 -103.503906 110.671875 -108.640625 C 108.441406 -113.773438 105.191406 -117.796875 100.921875 -120.703125 C 96.660156 -123.617188 91.523438 -125.078125 85.515625 -125.078125 C 79.503906 -125.078125 74.414062 -123.617188 70.25 -120.703125 C 66.082031 -117.796875 62.878906 -113.773438 60.640625 -108.640625 C 58.410156 -103.503906 57.296875 -97.539062 57.296875 -90.75 Z M 57.296875 -89.875 "/></g></g></g><g fill="#94637f" fill-opacity="1"><g transform="translate(1942.580886, 361.310316)"><g><path d="M 25.3125 0 C 23.363281 0 21.660156 -0.675781 20.203125 -2.03125 C 18.753906 -3.394531 18.03125 -5.140625 18.03125 -7.265625 L 18.03125 -143.984375 C 18.03125 -145.921875 18.753906 -147.613281 20.203125 -149.0625 C 21.660156 -150.519531 23.363281 -151.25 25.3125 -151.25 L 53.8125 -151.25 C 55.945312 -151.25 57.691406 -150.519531 59.046875 -149.0625 C 60.398438 -147.613281 61.078125 -145.921875 61.078125 -143.984375 L 61.078125 -132.34375 C 65.929688 -138.351562 71.941406 -143.003906 79.109375 -146.296875 C 86.285156 -149.597656 94.429688 -151.25 103.546875 -151.25 L 116.0625 -151.25 C 118.195312 -151.25 119.941406 -150.570312 121.296875 -149.21875 C 122.648438 -147.863281 123.328125 -146.117188 123.328125 -143.984375 L 123.328125 -118.671875 C 123.328125 -116.734375 122.648438 -115.085938 121.296875 -113.734375 C 119.941406 -112.378906 118.195312 -111.703125 116.0625 -111.703125 L 90.75 -111.703125 C 82.019531 -111.703125 75.28125 -109.273438 70.53125 -104.421875 C 65.78125 -99.578125 63.40625 -92.890625 63.40625 -84.359375 L 63.40625 -7.265625 C 63.40625 -5.140625 62.675781 -3.394531 61.21875 -2.03125 C 59.769531 -0.675781 58.078125 0 56.140625 0 Z M 25.3125 0 "/></g></g></g><g fill="#94637f" fill-opacity="1"><g transform="translate(2069.397064, 361.310316)"><g><path d="M 87.546875 2.90625 C 71.453125 2.90625 57.972656 0.238281 47.109375 -5.09375 C 36.253906 -10.425781 27.96875 -18.035156 22.25 -27.921875 C 16.53125 -37.816406 13.378906 -49.351562 12.796875 -62.53125 C 12.597656 -66.414062 12.5 -70.828125 12.5 -75.765625 C 12.5 -80.710938 12.597656 -85.03125 12.796875 -88.71875 C 13.378906 -102.09375 16.675781 -113.675781 22.6875 -123.46875 C 28.695312 -133.269531 37.128906 -140.832031 47.984375 -146.15625 C 58.847656 -151.488281 72.035156 -154.15625 87.546875 -154.15625 C 102.867188 -154.15625 115.957031 -151.488281 126.8125 -146.15625 C 137.675781 -140.832031 146.113281 -133.269531 152.125 -123.46875 C 158.132812 -113.675781 161.53125 -102.09375 162.3125 -88.71875 C 162.5 -85.03125 162.59375 -80.710938 162.59375 -75.765625 C 162.59375 -70.828125 162.5 -66.414062 162.3125 -62.53125 C 161.53125 -49.351562 158.28125 -37.816406 152.5625 -27.921875 C 146.84375 -18.035156 138.550781 -10.425781 127.6875 -5.09375 C 116.832031 0.238281 103.453125 2.90625 87.546875 2.90625 Z M 87.546875 -29.375 C 97.054688 -29.375 104.1875 -32.28125 108.9375 -38.09375 C 113.6875 -43.914062 116.351562 -52.550781 116.9375 -64 C 117.125 -66.90625 117.21875 -70.78125 117.21875 -75.625 C 117.21875 -80.476562 117.125 -84.359375 116.9375 -87.265625 C 116.351562 -98.515625 113.6875 -107.09375 108.9375 -113 C 104.1875 -118.914062 97.054688 -121.875 87.546875 -121.875 C 78.046875 -121.875 70.867188 -118.914062 66.015625 -113 C 61.171875 -107.09375 58.460938 -98.515625 57.890625 -87.265625 C 57.691406 -84.359375 57.59375 -80.476562 57.59375 -75.625 C 57.59375 -70.78125 57.691406 -66.90625 57.890625 -64 C 58.460938 -52.550781 61.171875 -43.914062 66.015625 -38.09375 C 70.867188 -32.28125 78.046875 -29.375 87.546875 -29.375 Z M 87.546875 -29.375 "/></g></g></g><path fill="#94637f" d="M 338.160156 226.027344 C 339.09375 224.261719 339.988281 222.472656 340.835938 220.675781 C 357.507812 185.542969 386.824219 157.949219 422.667969 142.960938 C 426.21875 141.480469 429.792969 140.015625 433.367188 138.5625 C 432.539062 139.136719 379.632812 175.96875 352.652344 221.667969 C 405.644531 182.273438 447.621094 214.859375 480.648438 124.175781 C 490.457031 97.226562 509.683594 90.484375 509.683594 90.484375 L 509.652344 90.480469 C 509.289062 90.394531 505.449219 89.792969 499.144531 89.265625 C 460.355469 85.976562 328.210938 85.339844 338.160156 226.027344 " fill-opacity="1" fill-rule="nonzero"/><g clip-path="url(#id1)"><g clip-path="url(#id2)"><g clip-path="url(#id3)"><path fill="#ffffff" d="M 521.203125 238.457031 L 508.433594 240.484375 L 326.074219 225.046875 L 338.851562 223.015625 Z M 521.203125 238.457031 " fill-opacity="1" fill-rule="nonzero"/></g></g></g><path fill="#94637f" d="M 268.503906 215.664062 C 267.550781 213.277344 266.640625 210.867188 265.796875 208.445312 C 249.195312 161.167969 215.371094 121.824219 171.464844 97.757812 C 167.113281 95.378906 162.738281 93.023438 158.355469 90.671875 C 159.335938 91.523438 222.144531 145.894531 250.527344 208.113281 C 200.472656 178.972656 129.753906 186.511719 99.714844 65.820312 C 90.796875 29.964844 67.074219 18.710938 67.074219 18.710938 L 67.113281 18.710938 C 67.597656 18.65625 72.59375 18.414062 80.742188 18.578125 C 130.886719 19.636719 300.308594 36.738281 268.503906 215.664062 " fill-opacity="1" fill-rule="nonzero"/><g clip-path="url(#id4)"><g clip-path="url(#id5)"><g clip-path="url(#id6)"><path fill="#ffffff" d="M 67.199219 14.207031 L 62.980469 215.574219 L 272.367188 219.972656 L 280.835938 227.078125 C 280.804688 227.160156 15.847656 137.449219 67.199219 14.207031 Z M 67.199219 14.207031 " fill-opacity="1" fill-rule="nonzero"/></g></g></g><path fill="#94637f" d="M 579.3125 176.234375 C 569.402344 181.722656 559.09375 186.925781 548.40625 191.820312 C 552.125 223.171875 549.984375 255.769531 541.140625 288.128906 C 504.636719 421.644531 366.285156 501.125 232.667969 465.386719 C 109.972656 432.558594 32.640625 314.597656 47.261719 191.871094 C 36.578125 186.976562 26.265625 181.777344 16.355469 176.289062 C -6.699219 318.46875 80.105469 457.4375 222.222656 496.523438 C 375.132812 538.589844 532.6875 447.765625 573.308594 294.671875 C 583.898438 254.742188 585.476562 214.546875 579.3125 176.234375 " fill-opacity="1" fill-rule="nonzero"/><path fill="#94637f" d="M 328.960938 243.75 C 328.949219 243.308594 328.925781 242.871094 328.878906 242.445312 C 318.613281 242.917969 308.234375 243.160156 297.777344 243.160156 C 287.324219 243.160156 276.960938 242.917969 266.699219 242.453125 C 266.640625 243.050781 266.605469 243.667969 266.605469 244.28125 C 266.578125 244.511719 266.578125 244.753906 266.578125 244.996094 C 266.578125 248.300781 267.097656 251.488281 268.058594 254.480469 C 269.226562 258.175781 271.074219 261.574219 273.457031 264.53125 C 275.582031 267.195312 278.144531 269.496094 281.046875 271.335938 C 284.597656 273.613281 288.636719 275.179688 292.976562 275.847656 C 294.542969 276.097656 296.148438 276.21875 297.789062 276.21875 C 299.597656 276.21875 301.375 276.070312 303.097656 275.757812 C 307.425781 275.03125 311.441406 273.402344 314.960938 271.058594 C 317.824219 269.171875 320.355469 266.828125 322.441406 264.121094 C 324.777344 261.132812 326.558594 257.71875 327.671875 253.992188 C 328.535156 251.160156 328.996094 248.125 328.996094 244.996094 C 328.996094 244.578125 328.988281 244.167969 328.960938 243.75 " fill-opacity="1" fill-rule="nonzero"/><path fill="#000000" d="M 494.539062 287.707031 C 486.175781 287.707031 479.402344 280.921875 479.402344 272.554688 C 479.402344 264.183594 486.175781 257.398438 494.539062 257.398438 C 502.902344 257.398438 509.683594 264.183594 509.683594 272.554688 C 509.683594 280.921875 502.902344 287.707031 494.539062 287.707031 Z M 464.085938 256.644531 C 457.710938 256.644531 452.546875 251.472656 452.546875 245.085938 C 452.546875 238.703125 457.710938 233.53125 464.085938 233.53125 C 470.464844 233.53125 475.636719 238.703125 475.636719 245.085938 C 475.636719 251.472656 470.464844 256.644531 464.085938 256.644531 Z M 500.308594 225.589844 C 504.691406 225.589844 508.246094 229.144531 508.246094 233.53125 C 508.246094 237.921875 504.691406 241.472656 500.308594 241.472656 C 495.925781 241.472656 492.371094 237.921875 492.371094 233.53125 C 492.371094 229.144531 495.925781 225.589844 500.308594 225.589844 Z M 498.445312 211.5625 C 449.683594 227.988281 395.308594 238.613281 337.628906 241.984375 C 337.707031 242.976562 337.75 243.976562 337.75 244.996094 C 337.75 245.527344 337.730469 246.058594 337.714844 246.597656 L 491.910156 296.738281 C 504.300781 300.769531 517.609375 293.628906 520.96875 281.03125 C 520.988281 280.953125 521.015625 280.871094 521.035156 280.792969 C 525.136719 265.320312 527.578125 249.789062 528.457031 234.40625 C 529.371094 218.332031 513.6875 206.425781 498.445312 211.5625 Z M 259.722656 257.1875 L 111.34375 305.429688 C 97.480469 309.9375 91.332031 326.144531 98.730469 338.71875 C 111.46875 360.375 127.714844 379.976562 146.925781 396.582031 C 157.0625 405.335938 172.484375 403.613281 180.355469 392.777344 L 268.15625 271.832031 C 264.382812 267.660156 261.480469 262.679688 259.722656 257.1875 Z M 103.765625 297.238281 L 257.882812 247.117188 C 257.84375 246.414062 257.824219 245.710938 257.824219 244.996094 C 257.824219 243.980469 257.878906 242.984375 257.949219 241.992188 C 200.261719 238.621094 145.882812 228 97.121094 211.570312 C 81.828125 206.417969 66.203125 218.417969 67.113281 234.542969 C 68.019531 250.519531 70.578125 266.226562 74.675781 281.421875 C 78.078125 294.050781 91.332031 301.285156 103.765625 297.238281 Z M 464.085938 342.722656 C 459.707031 342.722656 456.148438 339.171875 456.148438 334.78125 C 456.148438 330.394531 459.707031 326.84375 464.085938 326.84375 C 468.472656 326.84375 472.023438 330.394531 472.023438 334.78125 C 472.023438 339.171875 468.472656 342.722656 464.085938 342.722656 Z M 433.0625 381.941406 C 426.683594 381.941406 421.515625 376.769531 421.515625 370.382812 C 421.515625 364.003906 426.683594 358.828125 433.0625 358.828125 C 439.441406 358.828125 444.609375 364.003906 444.609375 370.382812 C 444.609375 376.769531 439.441406 381.941406 433.0625 381.941406 Z M 414.03125 341.996094 C 405.667969 341.996094 398.886719 335.210938 398.886719 326.84375 C 398.886719 318.46875 405.667969 311.683594 414.03125 311.683594 C 422.394531 311.683594 429.171875 318.46875 429.171875 326.84375 C 429.171875 335.210938 422.394531 341.996094 414.03125 341.996094 Z M 484.546875 305.011719 L 336.007812 256.703125 C 334.320312 262.222656 331.472656 267.226562 327.753906 271.445312 L 415.574219 392.425781 C 423.429688 403.253906 438.851562 405.015625 448.96875 396.273438 C 467.863281 379.925781 484.226562 360.433594 497.160156 338.304688 C 504.523438 325.703125 498.421875 309.523438 484.546875 305.011719 Z M 376.15625 417.71875 C 367.792969 417.71875 361.011719 410.9375 361.011719 402.5625 C 361.011719 394.195312 367.792969 387.410156 376.15625 387.410156 C 384.519531 387.410156 391.296875 394.195312 391.296875 402.5625 C 391.296875 410.9375 384.519531 417.71875 376.15625 417.71875 Z M 337.628906 376.039062 C 331.253906 376.039062 326.082031 370.863281 326.082031 364.484375 C 326.082031 358.101562 331.253906 352.925781 337.628906 352.925781 C 344.007812 352.925781 349.175781 358.101562 349.175781 364.484375 C 349.175781 370.863281 344.007812 376.039062 337.628906 376.039062 Z M 337.628906 417.71875 C 333.25 417.71875 329.695312 414.167969 329.695312 409.777344 C 329.695312 405.390625 333.25 401.839844 337.628906 401.839844 C 342.011719 401.839844 345.5625 405.390625 345.5625 409.777344 C 345.5625 414.167969 342.011719 417.71875 337.628906 417.71875 Z M 320.125 278.167969 C 315.136719 281.539062 309.34375 283.800781 303.097656 284.632812 L 303.097656 427.953125 C 303.097656 441.757812 315.246094 452.445312 328.910156 450.589844 C 330.847656 450.324219 332.789062 450.039062 334.722656 449.722656 C 356.472656 446.183594 377.460938 439.550781 397.105469 430.183594 C 409.980469 424.03125 414.140625 407.699219 405.75 396.140625 Z M 190.257812 396.390625 C 181.859375 407.960938 186.027344 424.339844 198.945312 430.445312 C 211.445312 436.359375 224.652344 441.222656 238.492188 444.890625 C 248.039062 447.429688 257.59375 449.332031 267.128906 450.625 C 280.808594 452.472656 292.976562 441.804688 292.976562 427.992188 L 292.976562 284.695312 C 286.714844 283.941406 280.90625 281.746094 275.882812 278.441406 L 190.257812 396.390625 " fill-opacity="1" fill-rule="nonzero"/></svg>